# xmcd
#
# Track frame offsets: 
#        150
#        17928
#        33935
#        50115
#        67031
#        82027
#        99163
#        113344
#        129911
#        147924
#        162805
#        181757
#        197323
#
# Disc length: 2849 seconds
#
# Revision: 4
# Processed by: cddbd v1.5.2PL0 Copyright (c) Steve Scherf et al.
# Submitted via: ExactAudioCopy v1.0b4
#
DISCID=a00b1f0d
DTITLE=Walkiria Santos - Abra-te Csamo
DYEAR=2002
DGENRE=Forr
TTITLE0=Alvo Fcil
TTITLE1=Amor Perfeito
TTITLE2=Se Voc Quiser
TTITLE3=De Corpo e Alma
TTITLE4=Abre-te Csamo
TTITLE5=Tempo ao Tempo
TTITLE6=Somente Tua
TTITLE7=Que Era Eu
TTITLE8=Voc No Me Ensinou a Te Esquecer
TTITLE9=Me Usa
TTITLE10=Voc Robou Minha Vida
TTITLE11=O Amor Faz
TTITLE12=Amantes
EXTD=YEAR: 2002 ID3G: 100
EXTT0=
EXTT1=
EXTT2=
EXTT3=
EXTT4=
EXTT5=
EXTT6=
EXTT7=
EXTT8=
EXTT9=
EXTT10=
EXTT11=
EXTT12=
PLAYORDER=
